<mxfile host="app.diagrams.net" modified="2023-12-09T11:56:59.942Z" agent="Mozilla/5.0 (Windows NT 10.0; Win64; x64; rv:120.0) Gecko/20100101 Firefox/120.0" etag="86R1jfLYBlX5r_FMm7LH" version="22.1.7" type="github">
  <diagram id="prtHgNgQTEPvFCAcTncT" name="Page-1">
    <mxGraphModel dx="1668" dy="1683" grid="1" gridSize="10" guides="1" tooltips="1" connect="1" arrows="1" fold="1" page="1" pageScale="1" pageWidth="827" pageHeight="1169" math="0" shadow="0">
      <root>
        <mxCell id="0" />
        <mxCell id="1" parent="0" />
        <mxCell id="dNxyNK7c78bLwvsdeMH5-11" value="&lt;div&gt;WidgetTree TU App&lt;/div&gt;" style="swimlane;html=1;startSize=20;horizontal=1;containerType=tree;glass=0;" parent="1" vertex="1">
          <mxGeometry x="-430" y="-230" width="1470" height="1160" as="geometry" />
        </mxCell>
        <mxCell id="gI4KnONz41u49CZWh2LP-1" value="Tu App" style="rounded=0;whiteSpace=wrap;html=1;" vertex="1" parent="dNxyNK7c78bLwvsdeMH5-11">
          <mxGeometry x="510" y="30" width="120" height="60" as="geometry" />
        </mxCell>
        <mxCell id="gI4KnONz41u49CZWh2LP-15" style="edgeStyle=orthogonalEdgeStyle;rounded=0;orthogonalLoop=1;jettySize=auto;html=1;exitX=0.5;exitY=1;exitDx=0;exitDy=0;entryX=0.5;entryY=0;entryDx=0;entryDy=0;" edge="1" parent="dNxyNK7c78bLwvsdeMH5-11" source="gI4KnONz41u49CZWh2LP-8" target="gI4KnONz41u49CZWh2LP-13">
          <mxGeometry relative="1" as="geometry" />
        </mxCell>
        <mxCell id="gI4KnONz41u49CZWh2LP-8" value="SignInEingabefelder" style="swimlane;fontStyle=0;childLayout=stackLayout;horizontal=1;startSize=30;horizontalStack=0;resizeParent=1;resizeParentMax=0;resizeLast=0;collapsible=1;marginBottom=0;whiteSpace=wrap;html=1;rounded=1;" vertex="1" parent="dNxyNK7c78bLwvsdeMH5-11">
          <mxGeometry x="20" y="190" width="140" height="90" as="geometry" />
        </mxCell>
        <mxCell id="gI4KnONz41u49CZWh2LP-9" value="Username/ZIH Login" style="text;strokeColor=none;fillColor=none;align=left;verticalAlign=middle;spacingLeft=4;spacingRight=4;overflow=hidden;points=[[0,0.5],[1,0.5]];portConstraint=eastwest;rotatable=0;whiteSpace=wrap;html=1;rounded=1;" vertex="1" parent="gI4KnONz41u49CZWh2LP-8">
          <mxGeometry y="30" width="140" height="30" as="geometry" />
        </mxCell>
        <mxCell id="gI4KnONz41u49CZWh2LP-10" value="Passwort" style="text;strokeColor=none;fillColor=none;align=left;verticalAlign=middle;spacingLeft=4;spacingRight=4;overflow=hidden;points=[[0,0.5],[1,0.5]];portConstraint=eastwest;rotatable=0;whiteSpace=wrap;html=1;" vertex="1" parent="gI4KnONz41u49CZWh2LP-8">
          <mxGeometry y="60" width="140" height="30" as="geometry" />
        </mxCell>
        <mxCell id="gI4KnONz41u49CZWh2LP-14" style="edgeStyle=orthogonalEdgeStyle;rounded=0;orthogonalLoop=1;jettySize=auto;html=1;exitX=0.5;exitY=1;exitDx=0;exitDy=0;" edge="1" parent="dNxyNK7c78bLwvsdeMH5-11" source="gI4KnONz41u49CZWh2LP-12" target="gI4KnONz41u49CZWh2LP-8">
          <mxGeometry relative="1" as="geometry" />
        </mxCell>
        <mxCell id="gI4KnONz41u49CZWh2LP-17" style="edgeStyle=orthogonalEdgeStyle;rounded=0;orthogonalLoop=1;jettySize=auto;html=1;exitX=0.75;exitY=1;exitDx=0;exitDy=0;" edge="1" parent="dNxyNK7c78bLwvsdeMH5-11" source="gI4KnONz41u49CZWh2LP-12" target="gI4KnONz41u49CZWh2LP-16">
          <mxGeometry relative="1" as="geometry" />
        </mxCell>
        <mxCell id="gI4KnONz41u49CZWh2LP-12" value="&lt;h3&gt;Sign in &lt;/h3&gt;" style="rounded=0;whiteSpace=wrap;html=1;fillColor=#dae8fc;strokeColor=#6c8ebf;glass=0;shadow=0;" vertex="1" parent="dNxyNK7c78bLwvsdeMH5-11">
          <mxGeometry x="90" y="100" width="140" height="60" as="geometry" />
        </mxCell>
        <mxCell id="gI4KnONz41u49CZWh2LP-13" value="Sign in Button" style="rounded=1;whiteSpace=wrap;html=1;" vertex="1" parent="dNxyNK7c78bLwvsdeMH5-11">
          <mxGeometry x="20" y="315" width="140" height="50" as="geometry" />
        </mxCell>
        <mxCell id="gI4KnONz41u49CZWh2LP-16" value="Passwort vergessen" style="rounded=1;whiteSpace=wrap;html=1;" vertex="1" parent="dNxyNK7c78bLwvsdeMH5-11">
          <mxGeometry x="180" y="190" width="110" height="60" as="geometry" />
        </mxCell>
        <mxCell id="gI4KnONz41u49CZWh2LP-83" style="edgeStyle=orthogonalEdgeStyle;rounded=0;orthogonalLoop=1;jettySize=auto;html=1;exitX=0;exitY=0.25;exitDx=0;exitDy=0;entryX=0.5;entryY=0;entryDx=0;entryDy=0;" edge="1" parent="dNxyNK7c78bLwvsdeMH5-11" source="gI4KnONz41u49CZWh2LP-24" target="gI4KnONz41u49CZWh2LP-32">
          <mxGeometry relative="1" as="geometry" />
        </mxCell>
        <mxCell id="gI4KnONz41u49CZWh2LP-84" style="edgeStyle=orthogonalEdgeStyle;rounded=0;orthogonalLoop=1;jettySize=auto;html=1;exitX=0;exitY=0.75;exitDx=0;exitDy=0;entryX=0.5;entryY=0;entryDx=0;entryDy=0;" edge="1" parent="dNxyNK7c78bLwvsdeMH5-11" source="gI4KnONz41u49CZWh2LP-24" target="gI4KnONz41u49CZWh2LP-31">
          <mxGeometry relative="1" as="geometry" />
        </mxCell>
        <mxCell id="gI4KnONz41u49CZWh2LP-86" style="edgeStyle=orthogonalEdgeStyle;rounded=0;orthogonalLoop=1;jettySize=auto;html=1;exitX=1;exitY=0.75;exitDx=0;exitDy=0;entryX=0.5;entryY=0;entryDx=0;entryDy=0;" edge="1" parent="dNxyNK7c78bLwvsdeMH5-11" source="gI4KnONz41u49CZWh2LP-24" target="gI4KnONz41u49CZWh2LP-33">
          <mxGeometry relative="1" as="geometry" />
        </mxCell>
        <mxCell id="gI4KnONz41u49CZWh2LP-87" style="edgeStyle=orthogonalEdgeStyle;rounded=0;orthogonalLoop=1;jettySize=auto;html=1;exitX=1;exitY=0.5;exitDx=0;exitDy=0;entryX=0.5;entryY=0;entryDx=0;entryDy=0;" edge="1" parent="dNxyNK7c78bLwvsdeMH5-11" source="gI4KnONz41u49CZWh2LP-24" target="gI4KnONz41u49CZWh2LP-52">
          <mxGeometry relative="1" as="geometry" />
        </mxCell>
        <mxCell id="gI4KnONz41u49CZWh2LP-88" style="edgeStyle=orthogonalEdgeStyle;rounded=0;orthogonalLoop=1;jettySize=auto;html=1;exitX=1;exitY=0;exitDx=0;exitDy=0;entryX=0.5;entryY=0;entryDx=0;entryDy=0;" edge="1" parent="dNxyNK7c78bLwvsdeMH5-11" source="gI4KnONz41u49CZWh2LP-24" target="gI4KnONz41u49CZWh2LP-72">
          <mxGeometry relative="1" as="geometry" />
        </mxCell>
        <mxCell id="gI4KnONz41u49CZWh2LP-24" value="&lt;h3&gt;Hauptmenü&lt;/h3&gt;" style="rounded=0;whiteSpace=wrap;html=1;fillColor=#dae8fc;strokeColor=#6c8ebf;" vertex="1" parent="dNxyNK7c78bLwvsdeMH5-11">
          <mxGeometry x="520" y="120" width="120" height="60" as="geometry" />
        </mxCell>
        <mxCell id="gI4KnONz41u49CZWh2LP-27" value="&lt;div&gt;Termine/Fristen&lt;/div&gt;" style="swimlane;fontStyle=0;childLayout=stackLayout;horizontal=1;startSize=30;horizontalStack=0;resizeParent=1;resizeParentMax=0;resizeLast=0;collapsible=1;marginBottom=0;whiteSpace=wrap;html=1;rounded=1;fillColor=#ffe6cc;strokeColor=#d79b00;" vertex="1" parent="dNxyNK7c78bLwvsdeMH5-11">
          <mxGeometry x="510" y="210" width="140" height="90" as="geometry" />
        </mxCell>
        <mxCell id="gI4KnONz41u49CZWh2LP-28" value="Rückmeldefristen" style="text;strokeColor=none;fillColor=none;align=left;verticalAlign=middle;spacingLeft=4;spacingRight=4;overflow=hidden;points=[[0,0.5],[1,0.5]];portConstraint=eastwest;rotatable=0;whiteSpace=wrap;html=1;" vertex="1" parent="gI4KnONz41u49CZWh2LP-27">
          <mxGeometry y="30" width="140" height="30" as="geometry" />
        </mxCell>
        <mxCell id="gI4KnONz41u49CZWh2LP-29" value="Studienfreie Tage" style="text;strokeColor=none;fillColor=none;align=left;verticalAlign=middle;spacingLeft=4;spacingRight=4;overflow=hidden;points=[[0,0.5],[1,0.5]];portConstraint=eastwest;rotatable=0;whiteSpace=wrap;html=1;" vertex="1" parent="gI4KnONz41u49CZWh2LP-27">
          <mxGeometry y="60" width="140" height="30" as="geometry" />
        </mxCell>
        <mxCell id="gI4KnONz41u49CZWh2LP-95" style="edgeStyle=orthogonalEdgeStyle;rounded=0;orthogonalLoop=1;jettySize=auto;html=1;exitX=0.5;exitY=1;exitDx=0;exitDy=0;entryX=0.5;entryY=0;entryDx=0;entryDy=0;" edge="1" parent="dNxyNK7c78bLwvsdeMH5-11" source="gI4KnONz41u49CZWh2LP-31" target="gI4KnONz41u49CZWh2LP-90">
          <mxGeometry relative="1" as="geometry" />
        </mxCell>
        <mxCell id="gI4KnONz41u49CZWh2LP-31" value="Fächerübersicht" style="rounded=1;whiteSpace=wrap;html=1;" vertex="1" parent="dNxyNK7c78bLwvsdeMH5-11">
          <mxGeometry x="400" y="210" width="90" height="40" as="geometry" />
        </mxCell>
        <mxCell id="gI4KnONz41u49CZWh2LP-32" value="&lt;div&gt;Stundenplan&lt;/div&gt;" style="rounded=1;whiteSpace=wrap;html=1;" vertex="1" parent="dNxyNK7c78bLwvsdeMH5-11">
          <mxGeometry x="300" y="210" width="90" height="40" as="geometry" />
        </mxCell>
        <mxCell id="gI4KnONz41u49CZWh2LP-96" style="edgeStyle=orthogonalEdgeStyle;rounded=0;orthogonalLoop=1;jettySize=auto;html=1;exitX=0.5;exitY=1;exitDx=0;exitDy=0;entryX=0.5;entryY=0;entryDx=0;entryDy=0;" edge="1" parent="dNxyNK7c78bLwvsdeMH5-11" source="gI4KnONz41u49CZWh2LP-33" target="gI4KnONz41u49CZWh2LP-91">
          <mxGeometry relative="1" as="geometry" />
        </mxCell>
        <mxCell id="gI4KnONz41u49CZWh2LP-33" value="&lt;div&gt;Weiterführende Kurse&lt;/div&gt;" style="rounded=1;whiteSpace=wrap;html=1;" vertex="1" parent="dNxyNK7c78bLwvsdeMH5-11">
          <mxGeometry x="670" y="210" width="90" height="40" as="geometry" />
        </mxCell>
        <mxCell id="gI4KnONz41u49CZWh2LP-97" style="edgeStyle=orthogonalEdgeStyle;rounded=0;orthogonalLoop=1;jettySize=auto;html=1;exitX=0.5;exitY=1;exitDx=0;exitDy=0;entryX=0.5;entryY=0;entryDx=0;entryDy=0;" edge="1" parent="dNxyNK7c78bLwvsdeMH5-11" source="gI4KnONz41u49CZWh2LP-52" target="gI4KnONz41u49CZWh2LP-92">
          <mxGeometry relative="1" as="geometry" />
        </mxCell>
        <mxCell id="gI4KnONz41u49CZWh2LP-52" value="&lt;div&gt;Matrix&lt;/div&gt;" style="rounded=1;whiteSpace=wrap;html=1;" vertex="1" parent="dNxyNK7c78bLwvsdeMH5-11">
          <mxGeometry x="780" y="210" width="90" height="40" as="geometry" />
        </mxCell>
        <mxCell id="gI4KnONz41u49CZWh2LP-98" style="edgeStyle=orthogonalEdgeStyle;rounded=0;orthogonalLoop=1;jettySize=auto;html=1;exitX=0.5;exitY=1;exitDx=0;exitDy=0;entryX=0.5;entryY=0;entryDx=0;entryDy=0;" edge="1" parent="dNxyNK7c78bLwvsdeMH5-11" source="gI4KnONz41u49CZWh2LP-72" target="gI4KnONz41u49CZWh2LP-93">
          <mxGeometry relative="1" as="geometry" />
        </mxCell>
        <mxCell id="gI4KnONz41u49CZWh2LP-72" value="Quality of Life" style="rounded=1;whiteSpace=wrap;html=1;" vertex="1" parent="dNxyNK7c78bLwvsdeMH5-11">
          <mxGeometry x="890" y="210" width="90" height="40" as="geometry" />
        </mxCell>
        <mxCell id="gI4KnONz41u49CZWh2LP-85" style="edgeStyle=orthogonalEdgeStyle;rounded=0;orthogonalLoop=1;jettySize=auto;html=1;exitX=0.25;exitY=1;exitDx=0;exitDy=0;entryX=0.312;entryY=-0.029;entryDx=0;entryDy=0;entryPerimeter=0;" edge="1" parent="dNxyNK7c78bLwvsdeMH5-11" source="gI4KnONz41u49CZWh2LP-24" target="gI4KnONz41u49CZWh2LP-27">
          <mxGeometry relative="1" as="geometry" />
        </mxCell>
        <mxCell id="gI4KnONz41u49CZWh2LP-90" value="&lt;div&gt;Fächerübersicht&lt;/div&gt;" style="rounded=0;whiteSpace=wrap;html=1;fillColor=#dae8fc;strokeColor=#6c8ebf;" vertex="1" parent="dNxyNK7c78bLwvsdeMH5-11">
          <mxGeometry x="400" y="270" width="90" height="40" as="geometry" />
        </mxCell>
        <mxCell id="gI4KnONz41u49CZWh2LP-168" style="edgeStyle=orthogonalEdgeStyle;rounded=0;orthogonalLoop=1;jettySize=auto;html=1;exitX=0.5;exitY=1;exitDx=0;exitDy=0;entryX=0.579;entryY=-0.014;entryDx=0;entryDy=0;entryPerimeter=0;" edge="1" parent="dNxyNK7c78bLwvsdeMH5-11" source="gI4KnONz41u49CZWh2LP-91" target="gI4KnONz41u49CZWh2LP-151">
          <mxGeometry relative="1" as="geometry" />
        </mxCell>
        <mxCell id="gI4KnONz41u49CZWh2LP-91" value="Weiterführende Kurse" style="rounded=0;whiteSpace=wrap;html=1;fillColor=#dae8fc;strokeColor=#6c8ebf;" vertex="1" parent="dNxyNK7c78bLwvsdeMH5-11">
          <mxGeometry x="670" y="260" width="90" height="40" as="geometry" />
        </mxCell>
        <mxCell id="gI4KnONz41u49CZWh2LP-92" value="Matrix" style="rounded=0;whiteSpace=wrap;html=1;fillColor=#dae8fc;strokeColor=#6c8ebf;" vertex="1" parent="dNxyNK7c78bLwvsdeMH5-11">
          <mxGeometry x="780" y="260" width="90" height="40" as="geometry" />
        </mxCell>
        <mxCell id="gI4KnONz41u49CZWh2LP-93" value="Quality of Life" style="rounded=0;whiteSpace=wrap;html=1;fillColor=#dae8fc;strokeColor=#6c8ebf;" vertex="1" parent="dNxyNK7c78bLwvsdeMH5-11">
          <mxGeometry x="890" y="260" width="90" height="40" as="geometry" />
        </mxCell>
        <mxCell id="gI4KnONz41u49CZWh2LP-109" style="edgeStyle=orthogonalEdgeStyle;rounded=0;orthogonalLoop=1;jettySize=auto;html=1;" edge="1" parent="dNxyNK7c78bLwvsdeMH5-11" source="gI4KnONz41u49CZWh2LP-99">
          <mxGeometry relative="1" as="geometry">
            <mxPoint x="342.5" y="430" as="targetPoint" />
          </mxGeometry>
        </mxCell>
        <mxCell id="gI4KnONz41u49CZWh2LP-99" value="" style="shape=internalStorage;whiteSpace=wrap;html=1;backgroundOutline=1;" vertex="1" parent="dNxyNK7c78bLwvsdeMH5-11">
          <mxGeometry x="300" y="330" width="85" height="80" as="geometry" />
        </mxCell>
        <mxCell id="gI4KnONz41u49CZWh2LP-100" value="&lt;div&gt;Stundenplan&lt;/div&gt;&lt;div&gt;Tabelle&lt;br&gt;&lt;/div&gt;" style="text;html=1;strokeColor=none;fillColor=none;align=center;verticalAlign=middle;whiteSpace=wrap;rounded=0;" vertex="1" parent="dNxyNK7c78bLwvsdeMH5-11">
          <mxGeometry x="315" y="355" width="60" height="30" as="geometry" />
        </mxCell>
        <mxCell id="gI4KnONz41u49CZWh2LP-103" value="" style="shape=flexArrow;endArrow=classic;startArrow=classic;html=1;rounded=0;" edge="1" parent="dNxyNK7c78bLwvsdeMH5-11">
          <mxGeometry width="100" height="100" relative="1" as="geometry">
            <mxPoint x="300" y="440" as="sourcePoint" />
            <mxPoint x="390" y="440" as="targetPoint" />
          </mxGeometry>
        </mxCell>
        <mxCell id="gI4KnONz41u49CZWh2LP-106" value="Scrollbar" style="text;html=1;strokeColor=none;fillColor=none;align=center;verticalAlign=middle;whiteSpace=wrap;rounded=0;" vertex="1" parent="dNxyNK7c78bLwvsdeMH5-11">
          <mxGeometry x="312.5" y="440" width="60" height="30" as="geometry" />
        </mxCell>
        <mxCell id="gI4KnONz41u49CZWh2LP-111" value="Fächerübersicht" style="swimlane;fontStyle=0;childLayout=stackLayout;horizontal=1;startSize=30;horizontalStack=0;resizeParent=1;resizeParentMax=0;resizeLast=0;collapsible=1;marginBottom=0;whiteSpace=wrap;html=1;rounded=1;" vertex="1" parent="dNxyNK7c78bLwvsdeMH5-11">
          <mxGeometry x="400" y="330" width="100" height="150" as="geometry" />
        </mxCell>
        <mxCell id="gI4KnONz41u49CZWh2LP-112" value="Mathe" style="text;strokeColor=none;fillColor=none;align=left;verticalAlign=middle;spacingLeft=4;spacingRight=4;overflow=hidden;points=[[0,0.5],[1,0.5]];portConstraint=eastwest;rotatable=0;whiteSpace=wrap;html=1;" vertex="1" parent="gI4KnONz41u49CZWh2LP-111">
          <mxGeometry y="30" width="100" height="30" as="geometry" />
        </mxCell>
        <mxCell id="gI4KnONz41u49CZWh2LP-113" value="EMF" style="text;strokeColor=none;fillColor=none;align=left;verticalAlign=middle;spacingLeft=4;spacingRight=4;overflow=hidden;points=[[0,0.5],[1,0.5]];portConstraint=eastwest;rotatable=0;whiteSpace=wrap;html=1;" vertex="1" parent="gI4KnONz41u49CZWh2LP-111">
          <mxGeometry y="60" width="100" height="30" as="geometry" />
        </mxCell>
        <mxCell id="gI4KnONz41u49CZWh2LP-114" value="AuD" style="text;strokeColor=none;fillColor=none;align=left;verticalAlign=middle;spacingLeft=4;spacingRight=4;overflow=hidden;points=[[0,0.5],[1,0.5]];portConstraint=eastwest;rotatable=0;whiteSpace=wrap;html=1;" vertex="1" parent="gI4KnONz41u49CZWh2LP-111">
          <mxGeometry y="90" width="100" height="30" as="geometry" />
        </mxCell>
        <mxCell id="gI4KnONz41u49CZWh2LP-119" value="Robolab" style="text;strokeColor=none;fillColor=none;align=left;verticalAlign=middle;spacingLeft=4;spacingRight=4;overflow=hidden;points=[[0,0.5],[1,0.5]];portConstraint=eastwest;rotatable=0;whiteSpace=wrap;html=1;" vertex="1" parent="gI4KnONz41u49CZWh2LP-111">
          <mxGeometry y="120" width="100" height="30" as="geometry" />
        </mxCell>
        <mxCell id="gI4KnONz41u49CZWh2LP-132" value="Mathe" style="swimlane;fontStyle=0;childLayout=stackLayout;horizontal=1;startSize=30;horizontalStack=0;resizeParent=1;resizeParentMax=0;resizeLast=0;collapsible=1;marginBottom=0;whiteSpace=wrap;html=1;rounded=1;fillColor=#ffe6cc;strokeColor=#d79b00;" vertex="1" parent="dNxyNK7c78bLwvsdeMH5-11">
          <mxGeometry x="460" y="510" width="100" height="180" as="geometry" />
        </mxCell>
        <mxCell id="gI4KnONz41u49CZWh2LP-133" value="Opal Kurs" style="text;strokeColor=none;fillColor=none;align=left;verticalAlign=middle;spacingLeft=4;spacingRight=4;overflow=hidden;points=[[0,0.5],[1,0.5]];portConstraint=eastwest;rotatable=0;whiteSpace=wrap;html=1;" vertex="1" parent="gI4KnONz41u49CZWh2LP-132">
          <mxGeometry y="30" width="100" height="30" as="geometry" />
        </mxCell>
        <mxCell id="gI4KnONz41u49CZWh2LP-134" value="Website Fachschaft" style="text;strokeColor=none;fillColor=none;align=left;verticalAlign=middle;spacingLeft=4;spacingRight=4;overflow=hidden;points=[[0,0.5],[1,0.5]];portConstraint=eastwest;rotatable=0;whiteSpace=wrap;html=1;" vertex="1" parent="gI4KnONz41u49CZWh2LP-132">
          <mxGeometry y="60" width="100" height="30" as="geometry" />
        </mxCell>
        <mxCell id="gI4KnONz41u49CZWh2LP-135" value="&lt;div&gt;Begl. Bücher&lt;/div&gt;" style="text;strokeColor=none;fillColor=none;align=left;verticalAlign=middle;spacingLeft=4;spacingRight=4;overflow=hidden;points=[[0,0.5],[1,0.5]];portConstraint=eastwest;rotatable=0;whiteSpace=wrap;html=1;" vertex="1" parent="gI4KnONz41u49CZWh2LP-132">
          <mxGeometry y="90" width="100" height="30" as="geometry" />
        </mxCell>
        <mxCell id="gI4KnONz41u49CZWh2LP-136" value="Prüfungstermine" style="text;strokeColor=none;fillColor=none;align=left;verticalAlign=middle;spacingLeft=4;spacingRight=4;overflow=hidden;points=[[0,0.5],[1,0.5]];portConstraint=eastwest;rotatable=0;whiteSpace=wrap;html=1;" vertex="1" parent="gI4KnONz41u49CZWh2LP-132">
          <mxGeometry y="120" width="100" height="30" as="geometry" />
        </mxCell>
        <mxCell id="gI4KnONz41u49CZWh2LP-137" value="Stoffsammlung" style="text;strokeColor=none;fillColor=none;align=left;verticalAlign=middle;spacingLeft=4;spacingRight=4;overflow=hidden;points=[[0,0.5],[1,0.5]];portConstraint=eastwest;rotatable=0;whiteSpace=wrap;html=1;" vertex="1" parent="gI4KnONz41u49CZWh2LP-132">
          <mxGeometry y="150" width="100" height="30" as="geometry" />
        </mxCell>
        <mxCell id="gI4KnONz41u49CZWh2LP-138" style="edgeStyle=orthogonalEdgeStyle;rounded=0;orthogonalLoop=1;jettySize=auto;html=1;exitX=1;exitY=0.5;exitDx=0;exitDy=0;entryX=0.5;entryY=0;entryDx=0;entryDy=0;" edge="1" parent="dNxyNK7c78bLwvsdeMH5-11" source="gI4KnONz41u49CZWh2LP-112" target="gI4KnONz41u49CZWh2LP-132">
          <mxGeometry relative="1" as="geometry" />
        </mxCell>
        <mxCell id="gI4KnONz41u49CZWh2LP-151" value="&lt;div&gt;Weiterführende&lt;/div&gt;&lt;div&gt;Kurse&lt;br&gt;&lt;/div&gt;" style="swimlane;fontStyle=0;childLayout=stackLayout;horizontal=1;startSize=30;horizontalStack=0;resizeParent=1;resizeParentMax=0;resizeLast=0;collapsible=1;marginBottom=0;whiteSpace=wrap;html=1;rounded=1;" vertex="1" parent="dNxyNK7c78bLwvsdeMH5-11">
          <mxGeometry x="650" y="330" width="110" height="120" as="geometry" />
        </mxCell>
        <mxCell id="gI4KnONz41u49CZWh2LP-152" value="Designkurse&lt;span style=&quot;white-space: pre;&quot;&gt;&#x9;&lt;/span&gt;" style="text;strokeColor=none;fillColor=none;align=left;verticalAlign=middle;spacingLeft=4;spacingRight=4;overflow=hidden;points=[[0,0.5],[1,0.5]];portConstraint=eastwest;rotatable=0;whiteSpace=wrap;html=1;" vertex="1" parent="gI4KnONz41u49CZWh2LP-151">
          <mxGeometry y="30" width="110" height="30" as="geometry" />
        </mxCell>
        <mxCell id="gI4KnONz41u49CZWh2LP-153" value="Prgrammierkurse" style="text;strokeColor=none;fillColor=none;align=left;verticalAlign=middle;spacingLeft=4;spacingRight=4;overflow=hidden;points=[[0,0.5],[1,0.5]];portConstraint=eastwest;rotatable=0;whiteSpace=wrap;html=1;" vertex="1" parent="gI4KnONz41u49CZWh2LP-151">
          <mxGeometry y="60" width="110" height="30" as="geometry" />
        </mxCell>
        <mxCell id="gI4KnONz41u49CZWh2LP-154" value="Sprachkurse" style="text;strokeColor=none;fillColor=none;align=left;verticalAlign=middle;spacingLeft=4;spacingRight=4;overflow=hidden;points=[[0,0.5],[1,0.5]];portConstraint=eastwest;rotatable=0;whiteSpace=wrap;html=1;" vertex="1" parent="gI4KnONz41u49CZWh2LP-151">
          <mxGeometry y="90" width="110" height="30" as="geometry" />
        </mxCell>
        <mxCell id="gI4KnONz41u49CZWh2LP-162" value="&lt;div&gt;Programmier-&lt;/div&gt;&lt;div&gt;kurse&lt;br&gt;&lt;/div&gt;" style="swimlane;fontStyle=0;childLayout=stackLayout;horizontal=1;startSize=25;horizontalStack=0;resizeParent=1;resizeParentMax=0;resizeLast=0;collapsible=1;marginBottom=0;whiteSpace=wrap;html=1;rounded=1;fillColor=#ffe6cc;strokeColor=#d79b00;" vertex="1" parent="dNxyNK7c78bLwvsdeMH5-11">
          <mxGeometry x="710" y="480" width="110" height="85" as="geometry" />
        </mxCell>
        <mxCell id="gI4KnONz41u49CZWh2LP-163" value="Rust&lt;span style=&quot;white-space: pre;&quot;&gt;&#x9;&lt;/span&gt;" style="text;strokeColor=none;fillColor=none;align=left;verticalAlign=middle;spacingLeft=4;spacingRight=4;overflow=hidden;points=[[0,0.5],[1,0.5]];portConstraint=eastwest;rotatable=0;whiteSpace=wrap;html=1;" vertex="1" parent="gI4KnONz41u49CZWh2LP-162">
          <mxGeometry y="25" width="110" height="30" as="geometry" />
        </mxCell>
        <mxCell id="gI4KnONz41u49CZWh2LP-164" value="Python" style="text;strokeColor=none;fillColor=none;align=left;verticalAlign=middle;spacingLeft=4;spacingRight=4;overflow=hidden;points=[[0,0.5],[1,0.5]];portConstraint=eastwest;rotatable=0;whiteSpace=wrap;html=1;" vertex="1" parent="gI4KnONz41u49CZWh2LP-162">
          <mxGeometry y="55" width="110" height="30" as="geometry" />
        </mxCell>
        <mxCell id="gI4KnONz41u49CZWh2LP-166" style="edgeStyle=orthogonalEdgeStyle;rounded=0;orthogonalLoop=1;jettySize=auto;html=1;exitX=1;exitY=0.5;exitDx=0;exitDy=0;entryX=0.5;entryY=0;entryDx=0;entryDy=0;" edge="1" parent="dNxyNK7c78bLwvsdeMH5-11" source="gI4KnONz41u49CZWh2LP-153" target="gI4KnONz41u49CZWh2LP-162">
          <mxGeometry relative="1" as="geometry" />
        </mxCell>
        <mxCell id="gI4KnONz41u49CZWh2LP-167" style="edgeStyle=orthogonalEdgeStyle;rounded=0;orthogonalLoop=1;jettySize=auto;html=1;exitX=0.5;exitY=1;exitDx=0;exitDy=0;entryX=0.454;entryY=-0.009;entryDx=0;entryDy=0;entryPerimeter=0;" edge="1" parent="dNxyNK7c78bLwvsdeMH5-11" source="gI4KnONz41u49CZWh2LP-90" target="gI4KnONz41u49CZWh2LP-111">
          <mxGeometry relative="1" as="geometry" />
        </mxCell>
        <mxCell id="gI4KnONz41u49CZWh2LP-108" style="edgeStyle=orthogonalEdgeStyle;rounded=0;orthogonalLoop=1;jettySize=auto;html=1;exitX=0.5;exitY=1;exitDx=0;exitDy=0;entryX=0.5;entryY=0;entryDx=0;entryDy=0;" edge="1" parent="1" source="gI4KnONz41u49CZWh2LP-89" target="gI4KnONz41u49CZWh2LP-99">
          <mxGeometry relative="1" as="geometry" />
        </mxCell>
        <mxCell id="gI4KnONz41u49CZWh2LP-89" value="Stundenplan" style="rounded=0;whiteSpace=wrap;html=1;fillColor=#dae8fc;strokeColor=#6c8ebf;" vertex="1" parent="1">
          <mxGeometry x="-130" y="40" width="90" height="40" as="geometry" />
        </mxCell>
        <mxCell id="gI4KnONz41u49CZWh2LP-94" style="edgeStyle=orthogonalEdgeStyle;rounded=0;orthogonalLoop=1;jettySize=auto;html=1;exitX=0.5;exitY=1;exitDx=0;exitDy=0;entryX=0.5;entryY=0;entryDx=0;entryDy=0;" edge="1" parent="1" source="gI4KnONz41u49CZWh2LP-32" target="gI4KnONz41u49CZWh2LP-89">
          <mxGeometry relative="1" as="geometry" />
        </mxCell>
      </root>
    </mxGraphModel>
  </diagram>
</mxfile>
